HIERARCHY
ROOT hip
{
  OFFSET 0 0 0
  CHANNELS 6 Xposition Yposition Zposition Zrotation Yrotation Xrotation
  JOINT abdomen
  {
    OFFSET 0 20.6881 -0.73152
    CHANNELS 3 Zrotation Xrotation Yrotation
    JOINT chest
    {
      OFFSET 0 11.7043 -0.48768
      CHANNELS 3 Zrotation Xrotation Yrotation
      JOINT neck
      {
        OFFSET 0 22.1894 -2.19456
        CHANNELS 3 Zrotation Xrotation Yrotation
        JOINT head
        {
          OFFSET -0.24384 7.07133 1.2192
          CHANNELS 3 Zrotation Xrotation Yrotation
          JOINT leftEye
          {
            OFFSET 4.14528 8.04674 8.04672
            CHANNELS 3 Zrotation Xrotation Yrotation
            End Site
            {
              OFFSET 1 0 0
            }
          }
          JOINT rightEye
          {
            OFFSET -3.6576 8.04674 8.04672
            CHANNELS 3 Zrotation Xrotation Yrotation
            End Site
            {
              OFFSET 1 0 0
            }
          }
        }
      }
      JOINT rCollar
      {
        OFFSET -2.68224 19.2634 -4.8768
        CHANNELS 3 Zrotation Xrotation Yrotation
        JOINT rShldr
        {
          OFFSET -8.77824 -1.95073 1.46304
          CHANNELS 3 Zrotation Xrotation Yrotation
          JOINT rForeArm
          {
            OFFSET -28.1742 -1.7115 0.48768
            CHANNELS 3 Zrotation Xrotation Yrotation
            JOINT rHand
            {
              OFFSET -22.5879 0.773209 7.07136
              CHANNELS 3 Zrotation Xrotation Yrotation
              JOINT rThumb1
              {
                OFFSET -1.2192 -0.487915 3.41376
                CHANNELS 3 Zrotation Xrotation Yrotation
                JOINT rThumb2
                {
                  OFFSET -3.37035 -0.52449 3.41376
                  CHANNELS 3 Zrotation Xrotation Yrotation
                  End Site
                  {
                    OFFSET -1.78271 -1.18214 1.43049
                  }
                }
              }
              JOINT rIndex1
              {
                OFFSET -7.75947 0.938293 5.60832
                CHANNELS 3 Zrotation Xrotation Yrotation
                JOINT rIndex2
                {
                  OFFSET -2.54057 -0.884171 1.56538
                  CHANNELS 3 Zrotation Xrotation Yrotation
                  End Site
                  {
                    OFFSET -1.62519 -0.234802 1.16502
                  }
                }
              }
              JOINT rMid1
              {
                OFFSET -8.24714 1.18213 3.41376
                CHANNELS 3 Zrotation Xrotation Yrotation
                JOINT rMid2
                {
                  OFFSET -3.10165 -0.590103 1.0647
                  CHANNELS 3 Zrotation Xrotation Yrotation
                  End Site
                  {
                    OFFSET -2.48547 -0.328903 0.83742
                  }
                }
              }
              JOINT rRing1
              {
                OFFSET -8.82822 0.546677 1.51678
                CHANNELS 3 Zrotation Xrotation Yrotation
                JOINT rRing2
                {
                  OFFSET -2.60934 -0.819778 -0.0198488
                  CHANNELS 3 Zrotation Xrotation Yrotation
                  End Site
                  {
                    OFFSET -2.33842 -0.294052 0.168128
                  }
                }
              }
              JOINT rPinky1
              {
                OFFSET -8.27202 -0.0477905 -0.4584
                CHANNELS 3 Zrotation Xrotation Yrotation
                JOINT rPinky2
                {
                  OFFSET -1.82734 -0.647385 -0.700984
                  CHANNELS 3 Zrotation Xrotation Yrotation
                  End Site
                  {
                    OFFSET -1.69225 -0.51767 -0.607171
                  }
                }
              }
            }
          }
        }
      }
      JOINT lCollar
      {
        OFFSET 2.68224 19.2634 -4.8768
        CHANNELS 3 Zrotation Xrotation Yrotation
        JOINT lShldr
        {
          OFFSET 8.77824 -1.95073 1.46304
          CHANNELS 3 Zrotation Xrotation Yrotation
          JOINT lForeArm
          {
            OFFSET 28.1742 -1.7115 0.48768
            CHANNELS 3 Zrotation Xrotation Yrotation
            JOINT lHand
            {
              OFFSET 22.5879 0.773209 7.07136
              CHANNELS 3 Zrotation Xrotation Yrotation
              JOINT lThumb1
              {
                OFFSET 1.2192 -0.487915 3.41376
                CHANNELS 3 Zrotation Xrotation Yrotation
                JOINT lThumb2
                {
                  OFFSET 3.37035 -0.52449 3.41376
                  CHANNELS 3 Zrotation Xrotation Yrotation
                  End Site
                  {
                    OFFSET 1.78271 -1.18214 1.43049
                  }
                }
              }
              JOINT lIndex1
              {
                OFFSET 7.75947 0.938293 5.60832
                CHANNELS 3 Zrotation Xrotation Yrotation
                JOINT lIndex2
                {
                  OFFSET 2.54057 -0.884171 1.56538
                  CHANNELS 3 Zrotation Xrotation Yrotation
                  End Site
                  {
                    OFFSET 1.62519 -0.234802 1.16502
                  }
                }
              }
              JOINT lMid1
              {
                OFFSET 8.24714 1.18213 3.41376
                CHANNELS 3 Zrotation Xrotation Yrotation
                JOINT lMid2
                {
                  OFFSET 3.10165 -0.590103 1.0647
                  CHANNELS 3 Zrotation Xrotation Yrotation
                  End Site
                  {
                    OFFSET 2.48547 -0.328903 0.83742
                  }
                }
              }
              JOINT lRing1
              {
                OFFSET 8.82822 0.546677 1.51678
                CHANNELS 3 Zrotation Xrotation Yrotation
                JOINT lRing2
                {
                  OFFSET 2.60934 -0.819778 -0.0198488
                  CHANNELS 3 Zrotation Xrotation Yrotation
                  End Site
                  {
                    OFFSET 2.33842 -0.294052 0.168128
                  }
                }
              }
              JOINT lPinky1
              {
                OFFSET 8.27202 -0.0477905 -0.4584
                CHANNELS 3 Zrotation Xrotation Yrotation
                JOINT lPinky2
                {
                  OFFSET 1.82734 -0.647385 -0.700984
                  CHANNELS 3 Zrotation Xrotation Yrotation
                  End Site
                  {
                    OFFSET 1.69225 -0.51767 -0.607171
                  }
                }
              }
            }
          }
        }
      }
    }
  }
  JOINT rButtock
  {
    OFFSET -8.77824 4.35084 1.2192
    CHANNELS 3 Zrotation Xrotation Yrotation
    JOINT rThigh
    {
      OFFSET 0 -1.70687 -2.19456
      CHANNELS 3 Zrotation Xrotation Yrotation
      JOINT rShin
      {
        OFFSET 0 -36.8199 0.73152
        CHANNELS 3 Zrotation Xrotation Yrotation
        JOINT rFoot
        {
          OFFSET 0.73152 -45.1104 -5.12064
          CHANNELS 3 Zrotation Xrotation Yrotation
          End Site
          {
            OFFSET -1.1221 -3.69964 12.103
          }
        }
      }
    }
  }
  JOINT lButtock
  {
    OFFSET 8.77824 4.35084 1.2192
    CHANNELS 3 Zrotation Xrotation Yrotation
    JOINT lThigh
    {
      OFFSET 0 -1.70687 -2.19456
      CHANNELS 3 Zrotation Xrotation Yrotation
      JOINT lShin
      {
        OFFSET 0 -36.8199 0.73152
        CHANNELS 3 Zrotation Xrotation Yrotation
        JOINT lFoot
        {
          OFFSET -0.73152 -45.1104 -5.12064
          CHANNELS 3 Zrotation Xrotation Yrotation
          End Site
          {
            OFFSET 1.1221 -3.69964 12.103
          }
        }
      }
    }
  }
}
MOTION
Frames:	4
Frame Time:	0.03333
0.061599997570738196 65.86059927940369 0.11200000299140811 342.4269987929804 -27.25020082592477 372.52198706859383 16.070999692480413 9.174600376200853 -0.7156130066073991 4.183589904375776 -7.6729602352851005 0.2462099901259917 1.7182000397308805 11.856900186855839 8.24015963453047 0.1543339939902561 -22.249300240181515 16.1781004737608 -0.0 0.0 0.0 -0.0 0.0 0.0 1.2851700535701246e-13 1.4355100580761085e-13 -2.861609875174193e-14 104.54599683266586 47.11469953626132 -54.57299973253761 -27.05080028329542 -43.87799924709192 91.20240266634555 -11.581400237815144 -65.4642008169865 -17.931500533709574 1.0937700189589476e-10 -3.606519909450229e-10 -1.0324799848046423e-10 1.9176800366695127e-10 -6.224000123264162e-10 -1.7404800294872108e-10 1.0937999608995036e-10 -3.606439898621523e-10 -1.0325399929261714e-10 7.730910121524428 5.474879855648998 0.41731399283890674 1.0937100108374185e-10 -3.606349948559438e-10 -1.0323300266210279e-10 2.90554006136521 0.9651829962377875 0.10290200252939893 1.0938599690210328e-10 -3.606559914864582e-10 -1.0325299915725832e-10 10.278599710243157 0.7318009818271524 0.025912300303053633 1.0937399527779745e-10 -3.606549975631202e-10 -1.0324399793902895e-10 2.221669932038622 -0.7334870246959406 -0.20891999872313852 1.2846599884196395e-13 1.4355600454314844e-13 -2.8822599913998204e-14 7.846079917535536 45.07269837067012 -95.40050330761302 20.79019937119025 -14.039200268188273 -40.6387991086863 0.4243559979144692 -18.22150012058456 2.651449980608154 -1.243829955474986e-09 6.334810151404682e-10 1.2748999990195327e-09 -2.176559918322646e-09 1.094769980381183e-09 2.1942100089580927e-09 -1.243829955474986e-09 6.334779836742874e-10 1.2749100376452462e-09 -7.730910121524428 5.474879855648998 -0.41731399283890674 -1.2438200162416065e-09 6.334759958276115e-10 1.2748800211604398e-09 -2.90554006136521 0.9651829962377875 -0.10290200252939893 -1.243829955474986e-09 6.334779836742874e-10 1.2748999990195327e-09 -10.278599710243157 0.7318009818271524 -0.025912300303053633 -1.243829955474986e-09 6.334800212171303e-10 1.2748899603938194e-09 -2.221669932038622 -0.7334870246959406 0.20891999872313852 -2.0321699793705798e-16 0.0 -3.882510030490358e-19 -8.217010415886003 2.0060999837663225 -10.018199601910066 -0.13511600278038227 38.4691997641155 1.6931300438257602 -11.891700000677053 -14.812400734122166 -28.26810050283719 2.0321699793705798e-16 0.0 3.882510030490358e-19 80.63629809582176 -52.06359847675868 67.52900115402721 3.0901000970320056 74.65950008146707 -3.241730083162877 -1.114680042356911 -1.5346299546069138 -10.641000156093924
0.16673999489285052 65.79070091247559 0.23900000378489494 342.3300101067662 -27.31310003799142 372.5379970320083 16.146200075242255 9.180100386030006 -0.8620279832244072 4.30323987759559 -7.692889873509552 0.21375099685917384 1.7906899046092837 11.812100122316078 8.25982972556646 0.03693420124609767 -22.11120064535303 16.184000049656397 -0.0 0.0 0.0 -0.0 0.0 0.0 1.6350599447218382e-13 2.6987299601952378e-14 -6.306490169495846e-13 104.45600226016177 47.050601625995334 -54.556398957759896 -27.025099988995954 -43.94780036531486 91.34070033665996 -11.438800402097263 -65.2797993697745 -17.774600843190626 1.93734006392706e-09 -5.647770185705709e-09 -1.4965299945339523e-09 3.4018298463462853e-09 -9.646519775990369e-09 -2.4776000152771704e-09 1.93734006392706e-09 -5.647759848902995e-09 -1.4965400331596656e-09 7.730910121524428 5.474879855648998 0.41731399283890674 1.937329925909013e-09 -5.647759848902995e-09 -1.496519955908239e-09 2.90554006136521 0.9651829962377875 0.10290200252939893 1.9373500031604397e-09 -5.647770185705709e-09 -1.4965400331596656e-09 10.278599710243157 0.7318009818271524 0.025912300303053633 1.937329925909013e-09 -5.647770185705709e-09 -1.4965299945339523e-09 2.221669932038622 -0.7334870246959406 -0.20891999872313852 1.634850046360673e-13 2.6995101026589908e-14 -6.308540136380383e-13 11.680400414739893 43.70810170658244 -99.53649703875756 21.786100716333348 -15.440400769811696 -43.206899010192316 0.5231580193120093 -20.098000679944477 2.9478900089836397 -2.0310900937178787e-09 2.3192399989024347e-09 3.305219901542828e-09 -3.563879902505522e-09 4.032779935098979e-09 5.7111399547485235e-09 -2.0310900937178787e-09 2.3192399989024347e-09 3.3052300395608754e-09 -7.730910121524428 5.474879855648998 -0.41731399283890674 -2.0310799556998315e-09 2.3192399989024347e-09 3.3052000230760694e-09 -2.90554006136521 0.9651829962377875 -0.10290200252939893 -2.0310900937178787e-09 2.3192399989024347e-09 3.305209962309449e-09 -10.278599710243157 0.7318009818271524 -0.025912300303053633 -2.0310900937178787e-09 2.3192399989024347e-09 3.3052000230760694e-09 -2.221669932038622 -0.7334870246959406 0.20891999872313852 -2.0321699793705798e-16 0.0 -3.882510030490358e-19 -8.327609961568728 2.0719999967561327 -10.087099988936217 -0.13266300437299566 38.43669830894999 1.6926099889534871 -11.845599638874052 -14.806200629903087 -28.190000704772675 2.0321699793705798e-16 0.0 3.882510030490358e-19 80.84899701676513 -52.08909898802492 67.76229992550734 3.166869929199068 74.94670270587694 -3.319929986187411 -1.150519965922672 -1.744770009210759 -10.580500047973244
0.24565999628975987 65.69349765777588 0.3529999987222254 342.3200107098213 -27.220100182252526 372.5449911457184 16.216100231208166 9.185550023214029 -1.1592600467393495 4.439990083176176 -7.7138303797311645 0.13925800558389256 1.8398700413977258 11.813799985645765 8.316849852305019 -0.07214219891150024 -22.052300509045423 16.269500357686617 -0.0 0.0 0.0 -0.0 0.0 0.0 -5.713110050380699e-14 -4.4894100058274256e-13 -1.047700026059096e-12 104.37899870745905 47.07179911808446 -54.58409878993888 -26.99729941152671 -44.022700219753226 91.48940038508032 -11.268300097393528 -65.05499735362187 -17.586700631576285 2.1118400038175502e-09 -7.357510352981242e-09 -2.15725991494619e-09 3.736520013046027e-09 -1.2640499939284554e-08 -3.6110399746142575e-09 2.11184994305093e-09 -7.357530231448002e-09 -2.1572700529642372e-09 7.730910121524428 5.474879855648998 0.41731399283890674 2.1118400038175502e-09 -7.357530231448002e-09 -2.15725991494619e-09 2.90554006136521 0.9651829962377875 0.10290200252939893 2.11184994305093e-09 -7.357530231448002e-09 -2.15725991494619e-09 10.278599710243157 0.7318009818271524 0.025912300303053633 2.111830064584171e-09 -7.357519894645287e-09 -2.15725991494619e-09 2.221669932038622 -0.7334870246959406 -0.20891999872313852 -5.707610228004037e-14 -4.489320222713401e-13 -1.0479399653648997e-12 14.61249988013611 42.101999798726865 -102.84499969157672 22.72349978368799 -16.88510018493799 -45.79220074312301 0.6080319776509976 -21.598099759428745 3.189290025149635 -2.807119991557525e-09 1.1422600350381204e-09 1.240129976457106e-09 -4.872599832768728e-09 1.9827500358223204e-09 2.1310799742243937e-09 -2.8071299307909045e-09 1.1422499964124071e-09 1.2401400150828194e-09 -7.730910121524428 5.474879855648998 -0.41731399283890674 -2.807119991557525e-09 1.1422499964124071e-09 1.240129976457106e-09 -2.90554006136521 0.9651829962377875 -0.10290200252939893 -2.8071299307909045e-09 1.1422499964124071e-09 1.240129976457106e-09 -10.278599710243157 0.7318009818271524 -0.025912300303053633 -2.807119991557525e-09 1.1422499964124071e-09 1.240129976457106e-09 -2.221669932038622 -0.7334870246959406 0.20891999872313852 -2.0321699793705798e-16 0.0 -3.882510030490358e-19 -8.44064959233244 2.1701099012112537 -10.1782001983122 -0.13145000546508373 38.39520149464758 1.696689959765512 -11.811499919442765 -14.807699856425904 -28.127400313482216 2.0321699793705798e-16 0.0 3.882510030490358e-19 81.01779831191281 -52.187200995073816 67.97079828011114 3.2440499996031544 75.22510121644666 -3.398539914005557 -1.1863599962101388 -1.9464299570732102 -10.525599841198327
0.3288899955805391 65.6220018863678 0.4719999968074262 342.29299048146476 -27.24839936353118 372.5349917487735 16.274300273125846 9.210079793844484 -1.3662399649133004 4.5606001248612005 -7.703459591250146 0.08911040318200854 1.865379944174077 11.806700004003538 8.367890148425232 -0.13422499659902618 -22.051899235431684 16.356300109206433 -0.0 0.0 0.0 -0.0 0.0 0.0 3.607780046515667e-14 -2.0876398791816988e-13 -9.123609599786137e-13 104.30599764560995 47.069900325495205 -54.58430028051939 -26.966199852688348 -44.10549918796671 91.65380303840253 -11.07359957868679 -64.7931005800869 -17.371800682172882 2.001839923805132e-09 -6.5720898674445755e-09 -1.877009911236387e-09 3.5329800186364337e-09 -1.1270099909653062e-08 -3.131079960685346e-09 2.001850061823179e-09 -6.57211014348067e-09 -1.8770299884878136e-09 7.730910121524428 5.474879855648998 0.41731399283890674 2.001839923805132e-09 -6.57211014348067e-09 -1.8770299884878136e-09 2.90554006136521 0.9651829962377875 0.10290200252939893 2.001850061823179e-09 -6.5720998066779544e-09 -1.8770200492544342e-09 10.278599710243157 0.7318009818271524 0.025912300303053633 2.001829984571752e-09 -6.5720998066779544e-09 -1.877009911236387e-09 2.221669932038622 -0.7334870246959406 -0.20891999872313852 3.6077500177038813e-14 -2.087579942886661e-13 -9.12613032137664e-13 17.045300564373346 40.137101223581354 -105.65000128935004 23.579100505542563 -18.32990034535454 -48.30570011240395 0.6576529818060229 -22.383100230927482 3.3184100556536715 -2.3215800920093213e-09 3.1900700065394515e-10 9.362520295880455e-10 -4.0300398872408985e-09 5.503350043538159e-10 1.6047200407556167e-09 -2.3215900312427007e-09 3.1900101226583395e-10 9.36263956668101e-10 -7.730910121524428 5.474879855648998 -0.41731399283890674 -2.3215800920093213e-09 3.1900101226583395e-10 9.362599809747492e-10 -2.90554006136521 0.9651829962377875 -0.10290200252939893 -2.3215900312427007e-09 3.1899800564773664e-10 9.362550113580595e-10 -10.278599710243157 0.7318009818271524 -0.025912300303053633 -2.321569953991274e-09 3.1899999349441255e-10 9.362490478180316e-10 -2.221669932038622 -0.7334870246959406 0.20891999872313852 -2.0321699793705798e-16 0.0 -3.882510030490358e-19 -8.532309877220364 2.2644900954927247 -10.166799758813802 -0.12990299429850227 38.330400074897085 1.6988300501315474 -11.774200256385324 -14.785800562399551 -28.088399933321444 2.0321699793705798e-16 0.0 3.882510030490358e-19 81.18470081447126 -52.19449905220198 68.16379893548819 3.3220099922330912 75.4952966698232 -3.4778699998943163 -1.221790001703993 -2.153509980207184 -10.478599601972178
